<svg xmlns="http://www.w3.org/2000/svg" width="21.426" height="30.051" viewBox="0 0 21.426 30.051"><defs><style>.a{fill:#2bcbba;stroke:#2bcbba;}</style></defs><g transform="translate(443.5 96.5)"><g transform="translate(-443 -96)"><path class="a" d="M-432.787-96A10.225,10.225,0,0,0-443-85.787a10.191,10.191,0,0,0,1.525,5.371l8.107,13.065a.851.851,0,0,0,.723.4h.007a.851.851,0,0,0,.723-.414l7.9-13.191a10.2,10.2,0,0,0,1.441-5.233A10.225,10.225,0,0,0-432.787-96Zm7.312,14.572-7.183,11.993-7.371-11.878a8.5,8.5,0,0,1-1.28-4.474,8.54,8.54,0,0,1,8.522-8.522,8.535,8.535,0,0,1,8.517,8.522A8.5,8.5,0,0,1-425.475-81.428Z" transform="translate(443 96)"/></g><g transform="translate(-437.893 -90.893)"><path class="a" d="M-347.893-6A5.112,5.112,0,0,0-353-.893a5.1,5.1,0,0,0,5.107,5.107,5.1,5.1,0,0,0,5.107-5.107A5.112,5.112,0,0,0-347.893-6Zm0,8.522a3.418,3.418,0,0,1-3.416-3.416,3.428,3.428,0,0,1,3.416-3.416,3.423,3.423,0,0,1,3.41,3.416A3.412,3.412,0,0,1-347.893,2.522Z" transform="translate(353 6)"/></g></g></svg>