<svg xmlns="http://www.w3.org/2000/svg" width="12.481" height="29.5" viewBox="0 0 12.481 29.5"><defs><style>.a{fill:#2bcbba;}</style></defs><g transform="translate(-37 -22)"><path class="a" d="M46.971,52.616V46.135a1.135,1.135,0,1,0-2.269,0v6.481a2.837,2.837,0,1,0,2.269,0Zm-1.135,3.163a.567.567,0,1,1,.567-.567A.568.568,0,0,1,45.837,55.779Z" transform="translate(-2.596 -9.952)"/><path class="a" d="M47.784,40.982l-.005-14.443a4.538,4.538,0,0,0-9.077,0L38.7,40.982a6.241,6.241,0,1,0,9.088,0ZM43.24,49.231A3.972,3.972,0,0,1,40.589,42.3a1.135,1.135,0,0,0,.376-.844l.006-14.92a2.269,2.269,0,1,1,4.538,0l.005,14.92a1.133,1.133,0,0,0,.377.844,3.972,3.972,0,0,1-2.651,6.929Z"/></g></svg>