<svg xmlns="http://www.w3.org/2000/svg" width="40" height="23.448" viewBox="0 0 40 23.448"><defs><style>.a{fill:#2bcbba;}</style></defs><g transform="translate(-19 -28)"><path class="a" d="M51.414,36.276a6.859,6.859,0,0,0-1.165.127,11.731,11.731,0,0,0-22.5,0,6.859,6.859,0,0,0-1.165-.127,7.586,7.586,0,0,0,0,15.172H51.414a7.586,7.586,0,1,0,0-15.172Zm0,12.414H26.586a4.828,4.828,0,1,1,0-9.655,4.9,4.9,0,0,1,.823.112v1.268a1.379,1.379,0,0,0,2.759,0V38.189a8.964,8.964,0,0,1,17.665.007v2.218a1.379,1.379,0,0,0,2.759,0V39.147a4.924,4.924,0,0,1,.822-.112,4.828,4.828,0,1,1,0,9.655Z" transform="translate(0 0)"/></g></svg>