<?xml version="1.0" encoding="utf-8"?>
<!-- Generator: Adobe Illustrator 22.1.0, SVG Export Plug-In . SVG Version: 6.00 Build 0)  -->
<svg version="1.1" id="Light" xmlns="http://www.w3.org/2000/svg" xmlns:xlink="http://www.w3.org/1999/xlink" x="0px" y="0px"
	 viewBox="0 0 24 24" style="enable-background:new 0 0 24 24;" xml:space="preserve">
<g>
	
	<path d="M5.649,24c-0.143,0-0.279-0.061-0.374-0.168c-0.183-0.207-0.163-0.524,0.043-0.706L17.893,12L5.318,0.875
		C5.111,0.692,5.092,0.375,5.274,0.169C5.37,0.062,5.506,0,5.649,0c0.122,0,0.24,0.045,0.331,0.125l12.576,11.126
		c0.029,0.026,0.056,0.052,0.081,0.08c0.369,0.416,0.332,1.051-0.08,1.416L5.98,23.875C5.888,23.956,5.771,24,5.649,24z"/>
</g>
</svg>
