<svg xmlns="http://www.w3.org/2000/svg" viewBox="0 0 105.08 105.08"><defs><style>.cls-1{fill:#fff;}</style></defs><title>vnt-symbol-neg</title><g id="Layer_2" data-name="Layer 2"><g id="Layer_1-2" data-name="Layer 1"><path class="cls-1" d="M52.54,105.08a52.54,52.54,0,1,1,52.54-52.54A52.6,52.6,0,0,1,52.54,105.08Zm0-100.45a47.91,47.91,0,1,0,47.91,47.91A48,48,0,0,0,52.54,4.63Z"/><path class="cls-1" d="M84.78,30.3a7.55,7.55,0,0,0-5.27-3.85,29.27,29.27,0,0,0-6.13-.65c-1,0-2.08.06-3.12.16a11.76,11.76,0,0,0-9.81,7.25L53.83,49.86a2.3,2.3,0,0,0,1.28,3A2.41,2.41,0,0,0,56,53a2.28,2.28,0,0,0,2.12-1.44l6.62-16.66a7.22,7.22,0,0,1,6-4.39,25.73,25.73,0,0,1,2.63-.13,24.89,24.89,0,0,1,5.18.54,3,3,0,0,1,2.15,1.45,2.42,2.42,0,0,1-.09,2.1L63.62,72a1.84,1.84,0,0,1-1.77,1.14H61.8a1.85,1.85,0,0,1-1.74-1.21l-2.79-7.13v0c-4-10.16-9.4-24.06-12.64-31.7a11.74,11.74,0,0,0-7.46-6.6,23.58,23.58,0,0,0-5.89-.73,21.62,21.62,0,0,0-7,1.11,6.88,6.88,0,0,0-4.06,3.76A6.76,6.76,0,0,0,20.21,36L40.11,80a12.47,12.47,0,0,0,8.38,7,20.23,20.23,0,0,0,4.65.54,19.51,19.51,0,0,0,4.07-.42,10,10,0,0,0,6.25-4,2.29,2.29,0,0,0-.68-3.15,2.29,2.29,0,0,0-3.16.69,5.56,5.56,0,0,1-3.36,2,15.36,15.36,0,0,1-3.12.32,15.73,15.73,0,0,1-3.6-.42,7.9,7.9,0,0,1-5.28-4.41L24.37,34.15a2.16,2.16,0,0,1,0-1.76,2.26,2.26,0,0,1,1.35-1.24,16.91,16.91,0,0,1,5.5-.87,19.23,19.23,0,0,1,4.78.58,7.29,7.29,0,0,1,4.44,4c3.23,7.6,8.65,21.47,12.6,31.6l.34.87c.92,2.34,1.75,4.47,2.45,6.27a6.41,6.41,0,0,0,5.88,4.11h.17a6.43,6.43,0,0,0,5.92-3.82l17-37.52A6.94,6.94,0,0,0,84.78,30.3Z"/></g></g></svg>